<svg width="123" height="123" viewBox="0 0 123 123" fill="none" xmlns="http://www.w3.org/2000/svg">
<path d="M32.2461 109.484H26.082L24.9102 113H21.1719L27.5234 95.9375H30.7812L37.168 113H33.4297L32.2461 109.484ZM27.0312 106.637H31.2969L29.1523 100.25L27.0312 106.637ZM43.8125 110.504C44.4375 110.504 44.9453 110.332 45.3359 109.988C45.7266 109.645 45.9297 109.188 45.9453 108.617H49.1211C49.1133 109.477 48.8789 110.266 48.418 110.984C47.957 111.695 47.3242 112.25 46.5195 112.648C45.7227 113.039 44.8398 113.234 43.8711 113.234C42.0586 113.234 40.6289 112.66 39.582 111.512C38.5352 110.355 38.0117 108.762 38.0117 106.73V106.508C38.0117 104.555 38.5312 102.996 39.5703 101.832C40.6094 100.668 42.0352 100.086 43.8477 100.086C45.4336 100.086 46.7031 100.539 47.6562 101.445C48.6172 102.344 49.1055 103.543 49.1211 105.043H45.9453C45.9297 104.387 45.7266 103.855 45.3359 103.449C44.9453 103.035 44.4297 102.828 43.7891 102.828C43 102.828 42.4023 103.117 41.9961 103.695C41.5977 104.266 41.3984 105.195 41.3984 106.484V106.836C41.3984 108.141 41.5977 109.078 41.9961 109.648C42.3945 110.219 43 110.504 43.8125 110.504ZM55.1094 97.2031V100.32H57.2773V102.805H55.1094V109.133C55.1094 109.602 55.1992 109.938 55.3789 110.141C55.5586 110.344 55.9023 110.445 56.4102 110.445C56.7852 110.445 57.1172 110.418 57.4062 110.363V112.93C56.7422 113.133 56.0586 113.234 55.3555 113.234C52.9805 113.234 51.7695 112.035 51.7227 109.637V102.805H49.8711V100.32H51.7227V97.2031H55.1094ZM62.7383 113H59.3398V100.32H62.7383V113ZM59.1406 97.0391C59.1406 96.5312 59.3086 96.1133 59.6445 95.7852C59.9883 95.457 60.4531 95.293 61.0391 95.293C61.6172 95.293 62.0781 95.457 62.4219 95.7852C62.7656 96.1133 62.9375 96.5312 62.9375 97.0391C62.9375 97.5547 62.7617 97.9766 62.4102 98.3047C62.0664 98.6328 61.6094 98.7969 61.0391 98.7969C60.4688 98.7969 60.0078 98.6328 59.6562 98.3047C59.3125 97.9766 59.1406 97.5547 59.1406 97.0391ZM70.2852 108.863L72.6406 100.32H76.1797L71.9023 113H68.668L64.3906 100.32H67.9297L70.2852 108.863ZM81.2539 113H77.8555V100.32H81.2539V113ZM77.6562 97.0391C77.6562 96.5312 77.8242 96.1133 78.1602 95.7852C78.5039 95.457 78.9688 95.293 79.5547 95.293C80.1328 95.293 80.5938 95.457 80.9375 95.7852C81.2812 96.1133 81.4531 96.5312 81.4531 97.0391C81.4531 97.5547 81.2773 97.9766 80.9258 98.3047C80.582 98.6328 80.125 98.7969 79.5547 98.7969C78.9844 98.7969 78.5234 98.6328 78.1719 98.3047C77.8281 97.9766 77.6562 97.5547 77.6562 97.0391ZM88.1094 97.2031V100.32H90.2773V102.805H88.1094V109.133C88.1094 109.602 88.1992 109.938 88.3789 110.141C88.5586 110.344 88.9023 110.445 89.4102 110.445C89.7852 110.445 90.1172 110.418 90.4062 110.363V112.93C89.7422 113.133 89.0586 113.234 88.3555 113.234C85.9805 113.234 84.7695 112.035 84.7227 109.637V102.805H82.8711V100.32H84.7227V97.2031H88.1094ZM96.8984 108.207L99.2422 100.32H102.875L97.7773 114.969L97.4961 115.637C96.7383 117.293 95.4883 118.121 93.7461 118.121C93.2539 118.121 92.7539 118.047 92.2461 117.898V115.332L92.7617 115.344C93.4023 115.344 93.8789 115.246 94.1914 115.051C94.5117 114.855 94.7617 114.531 94.9414 114.078L95.3398 113.035L90.8984 100.32H94.543L96.8984 108.207Z" fill="black"/>
<path fill-rule="evenodd" clip-rule="evenodd" d="M39.2825 59.373C34.1388 50.4918 31 40.107 31 32.5186C31 16.3669 45.2057 4.02353 62.7294 4.02353C79.6878 4.02353 93.4353 16.3669 93.4353 32.5186C93.4353 40.107 90.3978 50.4918 85.42 59.373C84.5459 60.9324 83.371 62.6211 82.1451 64.3831L82.145 64.3832C79.2235 68.5823 76.0121 73.1979 75.8925 77.4726C76.1127 77.5872 76.3169 77.7311 76.4995 77.9009C76.7742 78.1563 76.9941 78.465 77.146 78.808C77.2978 79.1511 77.3783 79.5214 77.3827 79.8965V79.9996C77.3827 80.7787 77.0732 81.526 76.5222 82.0769C75.9758 82.6233 75.2362 82.9323 74.4639 82.9373H74.8211C76.4435 82.9373 77.7588 84.2525 77.7588 85.875V85.9781C77.7588 87.6005 76.4435 88.9158 74.8211 88.9158H49.8504C48.228 88.9158 46.9127 87.6005 46.9127 85.9781V85.875C46.9127 84.2525 48.228 82.9373 49.8504 82.9373H50.2077C49.4354 82.9323 48.6958 82.6233 48.1493 82.0769C47.5984 81.526 47.2889 80.7787 47.2889 79.9996V79.8965C47.2932 79.5214 47.3738 79.1511 47.5256 78.808C47.6774 78.465 47.8974 78.1563 48.1721 77.9009C48.4464 77.6459 48.7695 77.4492 49.1219 77.3227C48.9265 73.0901 45.6503 68.5332 42.6666 64.3831C41.3998 62.6211 40.1857 60.9324 39.2825 59.373Z" fill="#023C52"/>
<mask id="path-3-inside-1" fill="white">
<path d="M84.9527 37.8041C84.0481 37.8069 83.1665 38.0871 82.429 38.6064C81.6915 39.1256 81.1342 39.8584 80.8337 40.7041L77.8109 40.649V34.849H83.6622C83.8543 34.8491 84.0446 34.8116 84.2221 34.7387C84.3996 34.6659 84.5609 34.5591 84.6967 34.4244C84.8326 34.2898 84.9403 34.1299 85.0138 33.954C85.0873 33.778 85.1251 33.5894 85.1251 33.399V27.3318C86.1011 26.9898 86.9238 26.3168 87.4477 25.4316C87.9715 24.5465 88.1629 23.5063 87.9878 22.4949C87.8128 21.4835 87.2827 20.566 86.4912 19.9045C85.6997 19.2431 84.6977 18.8803 83.6625 18.8802C82.6272 18.8802 81.6252 19.243 80.8337 19.9044C80.0421 20.5658 79.512 21.4833 79.3369 22.4947C79.1618 23.5061 79.3531 24.5463 79.8769 25.4314C80.4007 26.3166 81.2233 26.9897 82.1994 27.3317V31.949H77.8109V29.049C77.8109 28.8586 77.7731 28.67 77.6996 28.4941C77.6261 28.3181 77.5184 28.1583 77.3825 28.0236C77.2467 27.8889 77.0854 27.7821 76.9079 27.7093C76.7304 27.6364 76.5401 27.599 76.348 27.599H73.4223V20.0818C74.3984 19.7398 75.2211 19.0668 75.745 18.1816C76.2688 17.2965 76.4602 16.2563 76.2851 15.2449C76.1101 14.2335 75.58 13.316 74.7885 12.6545C73.997 11.9931 72.995 11.6303 71.9598 11.6302C70.9245 11.6302 69.9225 11.993 69.131 12.6544C68.3394 13.3158 67.8093 14.2333 67.6342 15.2447C67.4591 16.2561 67.6503 17.2963 68.1741 18.1814C68.698 19.0666 69.5206 19.7397 70.4967 20.0817V27.599H64.6453V4.45C64.6454 4.25957 64.6076 4.07099 64.5341 3.89505C64.4606 3.7191 64.3528 3.55924 64.217 3.42458C64.0811 3.28993 63.9198 3.18312 63.7423 3.11027C63.5648 3.03742 63.3746 2.99995 63.1825 3C45.1363 3 31 15.9509 31 32.4829C31 40.3361 34.145 50.7339 39.2085 59.6165C40.1177 61.211 41.3042 62.8875 42.5598 64.6632C45.215 68.415 48.17 72.6338 48.4913 76.3064C47.9374 76.6945 47.4877 77.211 47.1814 77.8109C46.8751 78.4108 46.7216 79.0758 46.7341 79.748C46.7383 80.7285 47.0798 81.6781 47.7023 82.4401C47.2737 82.8592 46.9341 83.3592 46.7035 83.9105C46.473 84.4618 46.3561 85.0532 46.3598 85.65C46.3611 86.8033 46.8239 87.909 47.6466 88.7245C48.4693 89.54 49.5848 89.9987 50.7483 90H75.6166C76.2006 89.9964 76.778 89.8781 77.3156 89.6518C77.8531 89.4255 78.34 89.0958 78.7482 88.6818C79.1563 88.2678 79.4775 87.7776 79.6933 87.2397C79.909 86.7018 80.015 86.1268 80.0051 85.548C80.0046 84.9644 79.8851 84.3868 79.6538 83.8501C79.4224 83.3134 79.084 82.8285 78.6588 82.4247C79.2893 81.6335 79.6318 80.6544 79.6308 79.6461C79.6298 79.0845 79.514 78.529 79.2904 78.013C79.0668 77.497 78.7402 77.0313 78.3301 76.6438C77.92 76.2564 77.435 75.9553 76.9043 75.7587C76.3736 75.5621 75.8082 75.4741 75.2423 75.5H64.6453V47.899H67.571V52.249C67.5709 52.4394 67.6087 52.628 67.6822 52.804C67.7557 52.9799 67.8635 53.1398 67.9993 53.2744C68.1352 53.4091 68.2965 53.5159 68.474 53.5887C68.6515 53.6616 68.8417 53.6991 69.0338 53.699H73.4223V55.4162C72.4463 55.7583 71.6237 56.4313 71.0999 57.3164C70.5761 58.2015 70.3848 59.2417 70.5599 60.253C70.7349 61.2644 71.2651 62.1819 72.0565 62.8433C72.848 63.5047 73.8499 63.8674 74.8852 63.8674C75.9204 63.8674 76.9223 63.5047 77.7138 62.8433C78.5053 62.1819 79.0354 61.2644 79.2105 60.253C79.3856 59.2417 79.1943 58.2015 78.6705 57.3164C78.1467 56.4313 77.324 55.7583 76.348 55.4162V52.249C76.3481 52.0586 76.3103 51.87 76.2368 51.6941C76.1633 51.5181 76.0555 51.3583 75.9197 51.2236C75.7838 51.089 75.6225 50.9821 75.445 50.9093C75.2675 50.8364 75.0773 50.799 74.8852 50.799H70.4967V47.899H76.348C76.5401 47.8991 76.7304 47.8616 76.9079 47.7887C77.0854 47.7159 77.2467 47.6091 77.3825 47.4744C77.5184 47.3398 77.6261 47.1799 77.6996 47.004C77.7731 46.828 77.8109 46.6395 77.8109 46.449V43.549L80.8338 43.6041C81.1033 44.3539 81.5756 45.0158 82.199 45.5175C82.8224 46.0193 83.5729 46.3415 84.3686 46.449C85.1642 46.5566 85.9743 46.4452 86.7105 46.1273C87.4466 45.8093 88.0804 45.2969 88.5427 44.646C89.0049 43.9951 89.2777 43.2308 89.3314 42.4367C89.385 41.6425 89.2175 40.849 88.8469 40.1428C88.4764 39.4366 87.9172 38.845 87.2304 38.4326C86.5436 38.0201 85.7557 37.8027 84.9527 37.8041ZM83.6622 21.799C83.9515 21.799 84.2344 21.8841 84.4749 22.0434C84.7155 22.2027 84.903 22.4292 85.0137 22.6941C85.1244 22.9591 85.1534 23.2506 85.0969 23.5319C85.0405 23.8132 84.9012 24.0715 84.6966 24.2743C84.492 24.4771 84.2314 24.6152 83.9476 24.6712C83.6638 24.7271 83.3697 24.6984 83.1024 24.5886C82.8351 24.4789 82.6066 24.293 82.4459 24.0546C82.2852 23.8161 82.1994 23.5358 82.1994 23.249C82.1998 22.8646 82.354 22.496 82.6283 22.2241C82.9025 21.9523 83.2744 21.7994 83.6622 21.799ZM44.9555 62.998C43.7412 61.2818 42.5948 59.6619 41.7555 58.1892C36.9992 49.8446 33.9257 39.7541 33.9257 32.4829C33.9257 18.0225 46.0191 6.60092 61.7196 5.93115V16.0608C61.3313 16.0897 60.9351 16.1246 60.5111 16.1761C60.2082 16.2126 59.9244 16.3422 59.6995 16.5466C59.4745 16.751 59.3198 17.02 59.2568 17.316L58.8111 19.4173C58.444 19.5037 58.0778 19.6014 57.7125 19.7105L56.2547 18.099C56.051 17.8732 55.7811 17.7163 55.4828 17.6505C55.1845 17.5847 54.8729 17.6133 54.5918 17.7323C52.9546 18.4321 51.4093 19.3265 49.9897 20.3958C49.746 20.578 49.5659 20.8311 49.4745 21.1198C49.3832 21.4085 49.3853 21.7183 49.4804 22.0058L50.1519 24.0336C49.8754 24.2913 49.6062 24.5589 49.3455 24.8322L47.3019 24.1666C47.0118 24.0735 46.6997 24.072 46.4088 24.1623C46.1178 24.2526 45.8623 24.4303 45.6776 24.6707C44.5975 26.0781 43.6944 27.6106 42.9884 29.2346C42.8685 29.5132 42.8398 29.822 42.9062 30.1176C42.9725 30.4133 43.1307 30.6808 43.3584 30.8828L44.9848 32.3271C44.8755 32.6854 44.7776 33.0446 44.6912 33.4047L42.4162 33.855C42.0846 33.9206 41.7861 34.0981 41.5716 34.3573C41.3571 34.6165 41.2399 34.9414 41.2399 35.2767V40.2214C41.2399 40.5566 41.3571 40.8815 41.5716 41.1407C41.7861 41.4 42.0846 41.5775 42.4163 41.6431L44.6913 42.0934C44.7777 42.453 44.8755 42.8122 44.9848 43.1709L43.3577 44.6153C43.1303 44.8174 42.9724 45.085 42.906 45.3806C42.8397 45.6761 42.8682 45.9849 42.9877 46.2635C43.6938 47.8874 44.5969 49.42 45.677 50.8273C45.8615 51.068 46.117 51.2458 46.408 51.3362C46.699 51.4265 47.0112 51.4248 47.3012 51.3314L49.3448 50.6659C49.6062 50.9392 49.8748 51.2067 50.1512 51.4645L49.4798 53.4894C49.3847 53.7769 49.3826 54.0866 49.4737 54.3752C49.5649 54.6639 49.7449 54.9171 49.9884 55.0994C51.4079 56.1703 52.9538 57.0656 54.5919 57.7658C54.8731 57.8841 55.1845 57.9123 55.4826 57.8465C55.7808 57.7808 56.0507 57.6243 56.2548 57.3991L57.7126 55.7876C58.0776 55.8967 58.4438 55.9944 58.8112 56.0807L59.2562 58.1807C59.3188 58.4769 59.4735 58.7463 59.6984 58.951C59.9234 59.1557 60.2073 59.2854 60.5104 59.322C60.9348 59.3735 61.3312 59.4084 61.7197 59.4372V75.5H51.3536C50.7557 71.2268 47.7021 66.8797 44.9555 62.998ZM50.0169 37.749C50.0214 40.9573 51.2167 44.0517 53.3749 46.4426C55.5331 48.8335 58.5034 50.3537 61.7196 50.7135V55.6999L61.4775 54.5586C61.4177 54.276 61.2743 54.0175 61.0655 53.8162C60.8567 53.6149 60.592 53.4799 60.3053 53.4286C59.4382 53.2721 58.5858 53.0443 57.7568 52.7475C57.5979 52.6915 57.4305 52.6628 57.2618 52.6625C57.0562 52.6625 56.8529 52.7055 56.6652 52.7887C56.4775 52.8719 56.3096 52.9935 56.1726 53.1454L54.7969 54.6662C54.0346 54.2886 53.2989 53.8604 52.5947 53.3847L53.2297 51.4688C53.3206 51.1943 53.3268 50.8992 53.2475 50.6213C53.1683 50.3433 53.0071 50.0951 52.7847 49.9084C52.1102 49.3423 51.484 48.7218 50.9126 48.0534C50.7237 47.8343 50.4735 47.6757 50.1937 47.5976C49.9139 47.5195 49.617 47.5253 49.3405 47.6144L47.4084 48.2445C46.9283 47.5463 46.4961 46.8168 46.1148 46.061L47.6505 44.6974C47.867 44.5047 48.0207 44.2524 48.0921 43.9727C48.1634 43.6931 48.1492 43.3987 48.0512 43.1271C47.752 42.3053 47.5221 41.4604 47.3641 40.6009C47.3119 40.3145 47.174 40.0504 46.9682 39.8428C46.7625 39.6352 46.4985 39.4937 46.2105 39.4369L44.1656 39.0319V36.4661L46.2106 36.0611C46.4985 36.0043 46.7626 35.8629 46.9683 35.6553C47.174 35.4477 47.312 35.1835 47.3642 34.8972C47.5224 34.0373 47.7522 33.1918 48.0512 32.3695C48.1494 32.0979 48.1637 31.8034 48.0922 31.5236C48.0207 31.2439 47.8667 30.9917 47.6498 30.7992L46.1155 29.437C46.4971 28.6815 46.929 27.9521 47.4084 27.2535L49.3412 27.8836C49.6177 27.9727 49.9146 27.9785 50.1944 27.9003C50.4742 27.8222 50.7244 27.6636 50.9133 27.4447C51.4861 26.7757 52.1126 26.1539 52.7869 25.5854C53.0084 25.3991 53.1688 25.1515 53.2477 24.8743C53.3266 24.5971 53.3203 24.3029 53.2297 24.0292L52.5955 22.1134C53.2995 21.6379 54.035 21.2098 54.7969 20.8319L56.1726 22.3527C56.3671 22.5671 56.6216 22.7194 56.9037 22.7903C57.1857 22.8611 57.4827 22.8473 57.7568 22.7506C58.5857 22.4536 59.4382 22.2257 60.3053 22.0695C60.5919 22.0184 60.8565 21.8838 61.0654 21.6827C61.2742 21.4816 61.4177 21.2233 61.4775 20.9409L61.7196 19.7996V24.7846C58.5034 25.1443 55.5331 26.6645 53.3749 29.0554C51.2167 31.4463 50.0214 34.5408 50.0169 37.749ZM61.7196 27.7148V47.7832C59.2834 47.4375 57.0546 46.2324 55.4424 44.3893C53.8302 42.5461 52.9426 40.1885 52.9426 37.749C52.9426 35.3095 53.8302 32.9518 55.4424 31.1087C57.0546 29.2655 59.2834 28.0605 61.7196 27.7148ZM75.6166 87.1H50.7483C50.5484 87.0967 50.3512 87.0535 50.1685 86.973C49.9858 86.8925 49.8213 86.7764 49.6848 86.6316C49.5483 86.4868 49.4426 86.3162 49.374 86.1301C49.3054 85.9439 49.2753 85.746 49.2855 85.548C49.2859 85.1636 49.4401 84.795 49.7144 84.5232C49.9886 84.2513 50.3605 84.0984 50.7483 84.098H75.6166C75.8165 84.1014 76.0137 84.1446 76.1964 84.225C76.3792 84.3055 76.5437 84.4216 76.6802 84.5664C76.8167 84.7112 76.9224 84.8818 76.991 85.068C77.0596 85.2541 77.0896 85.4521 77.0794 85.65C77.0791 86.0345 76.9248 86.403 76.6506 86.6749C76.3763 86.9467 76.0045 87.0996 75.6166 87.1ZM75.2423 78.4C75.43 78.3829 75.6193 78.4051 75.7977 78.4654C75.9761 78.5257 76.1397 78.6226 76.2778 78.7499C76.4158 78.8771 76.5253 79.0318 76.5989 79.2038C76.6725 79.3758 76.7088 79.5612 76.7052 79.748C76.7048 80.1325 76.5505 80.5011 76.2763 80.7729C76.002 81.0448 75.6302 81.1977 75.2423 81.198H51.1226C50.9227 81.1947 50.7255 81.1515 50.5428 81.071C50.3601 80.9906 50.1956 80.8745 50.059 80.7297C49.9225 80.5849 49.8169 80.4143 49.7483 80.2281C49.6797 80.042 49.6496 79.844 49.6598 79.6461C49.6675 79.467 49.7123 79.2915 49.7912 79.1303C49.8702 78.9691 49.9816 78.8256 50.1188 78.7088C50.2559 78.592 50.4157 78.5043 50.5884 78.4512C50.761 78.3981 50.9429 78.3807 51.1226 78.4H75.2423ZM74.8852 58.049C75.1745 58.049 75.4573 58.1341 75.6979 58.2934C75.9385 58.4527 76.1259 58.6792 76.2367 58.9441C76.3474 59.2091 76.3764 59.5006 76.3199 59.7819C76.2635 60.0632 76.1241 60.3215 75.9196 60.5243C75.715 60.7271 75.4543 60.8652 75.1706 60.9212C74.8868 60.9771 74.5927 60.9484 74.3254 60.8386C74.0581 60.7289 73.8296 60.543 73.6689 60.3046C73.5081 60.0661 73.4223 59.7858 73.4223 59.499C73.4227 59.1146 73.577 58.746 73.8512 58.4741C74.1255 58.2023 74.4973 58.0494 74.8852 58.049ZM71.9595 14.549C72.2488 14.549 72.5316 14.6341 72.7722 14.7934C73.0128 14.9527 73.2003 15.1792 73.311 15.4441C73.4217 15.7091 73.4507 16.0006 73.3942 16.2819C73.3378 16.5632 73.1985 16.8215 72.9939 17.0243C72.7893 17.2271 72.5287 17.3652 72.2449 17.4212C71.9611 17.4771 71.667 17.4484 71.3997 17.3386C71.1324 17.2289 70.9039 17.043 70.7432 16.8046C70.5825 16.5661 70.4967 16.2858 70.4967 15.999C70.4971 15.6146 70.6513 15.246 70.9255 14.9741C71.1998 14.7023 71.5716 14.5494 71.9595 14.549ZM74.8852 44.999H64.6453V30.499H74.8852V44.999ZM84.9527 43.6041C84.6633 43.6041 84.3805 43.5191 84.1399 43.3598C83.8994 43.2004 83.7119 42.974 83.6012 42.709C83.4904 42.4441 83.4615 42.1525 83.5179 41.8713C83.5744 41.59 83.7137 41.3316 83.9183 41.1288C84.1229 40.9261 84.3835 40.788 84.6673 40.732C84.951 40.6761 85.2452 40.7048 85.5125 40.8145C85.7798 40.9243 86.0082 41.1101 86.169 41.3486C86.3297 41.587 86.4155 41.8674 86.4155 42.1541C86.4151 42.5386 86.2609 42.9072 85.9866 43.179C85.7124 43.4509 85.3405 43.6038 84.9527 43.6041Z"/>
</mask>
<path d="M84.9527 37.8041C84.0481 37.8069 83.1665 38.0871 82.429 38.6064C81.6915 39.1256 81.1342 39.8584 80.8337 40.7041L77.8109 40.649V34.849H83.6622C83.8543 34.8491 84.0446 34.8116 84.2221 34.7387C84.3996 34.6659 84.5609 34.5591 84.6967 34.4244C84.8326 34.2898 84.9403 34.1299 85.0138 33.954C85.0873 33.778 85.1251 33.5894 85.1251 33.399V27.3318C86.1011 26.9898 86.9238 26.3168 87.4477 25.4316C87.9715 24.5465 88.1629 23.5063 87.9878 22.4949C87.8128 21.4835 87.2827 20.566 86.4912 19.9045C85.6997 19.2431 84.6977 18.8803 83.6625 18.8802C82.6272 18.8802 81.6252 19.243 80.8337 19.9044C80.0421 20.5658 79.512 21.4833 79.3369 22.4947C79.1618 23.5061 79.3531 24.5463 79.8769 25.4314C80.4007 26.3166 81.2233 26.9897 82.1994 27.3317V31.949H77.8109V29.049C77.8109 28.8586 77.7731 28.67 77.6996 28.4941C77.6261 28.3181 77.5184 28.1583 77.3825 28.0236C77.2467 27.8889 77.0854 27.7821 76.9079 27.7093C76.7304 27.6364 76.5401 27.599 76.348 27.599H73.4223V20.0818C74.3984 19.7398 75.2211 19.0668 75.745 18.1816C76.2688 17.2965 76.4602 16.2563 76.2851 15.2449C76.1101 14.2335 75.58 13.316 74.7885 12.6545C73.997 11.9931 72.995 11.6303 71.9598 11.6302C70.9245 11.6302 69.9225 11.993 69.131 12.6544C68.3394 13.3158 67.8093 14.2333 67.6342 15.2447C67.4591 16.2561 67.6503 17.2963 68.1741 18.1814C68.698 19.0666 69.5206 19.7397 70.4967 20.0817V27.599H64.6453V4.45C64.6454 4.25957 64.6076 4.07099 64.5341 3.89505C64.4606 3.7191 64.3528 3.55924 64.217 3.42458C64.0811 3.28993 63.9198 3.18312 63.7423 3.11027C63.5648 3.03742 63.3746 2.99995 63.1825 3C45.1363 3 31 15.9509 31 32.4829C31 40.3361 34.145 50.7339 39.2085 59.6165C40.1177 61.211 41.3042 62.8875 42.5598 64.6632C45.215 68.415 48.17 72.6338 48.4913 76.3064C47.9374 76.6945 47.4877 77.211 47.1814 77.8109C46.8751 78.4108 46.7216 79.0758 46.7341 79.748C46.7383 80.7285 47.0798 81.6781 47.7023 82.4401C47.2737 82.8592 46.9341 83.3592 46.7035 83.9105C46.473 84.4618 46.3561 85.0532 46.3598 85.65C46.3611 86.8033 46.8239 87.909 47.6466 88.7245C48.4693 89.54 49.5848 89.9987 50.7483 90H75.6166C76.2006 89.9964 76.778 89.8781 77.3156 89.6518C77.8531 89.4255 78.34 89.0958 78.7482 88.6818C79.1563 88.2678 79.4775 87.7776 79.6933 87.2397C79.909 86.7018 80.015 86.1268 80.0051 85.548C80.0046 84.9644 79.8851 84.3868 79.6538 83.8501C79.4224 83.3134 79.084 82.8285 78.6588 82.4247C79.2893 81.6335 79.6318 80.6544 79.6308 79.6461C79.6298 79.0845 79.514 78.529 79.2904 78.013C79.0668 77.497 78.7402 77.0313 78.3301 76.6438C77.92 76.2564 77.435 75.9553 76.9043 75.7587C76.3736 75.5621 75.8082 75.4741 75.2423 75.5H64.6453V47.899H67.571V52.249C67.5709 52.4394 67.6087 52.628 67.6822 52.804C67.7557 52.9799 67.8635 53.1398 67.9993 53.2744C68.1352 53.4091 68.2965 53.5159 68.474 53.5887C68.6515 53.6616 68.8417 53.6991 69.0338 53.699H73.4223V55.4162C72.4463 55.7583 71.6237 56.4313 71.0999 57.3164C70.5761 58.2015 70.3848 59.2417 70.5599 60.253C70.7349 61.2644 71.2651 62.1819 72.0565 62.8433C72.848 63.5047 73.8499 63.8674 74.8852 63.8674C75.9204 63.8674 76.9223 63.5047 77.7138 62.8433C78.5053 62.1819 79.0354 61.2644 79.2105 60.253C79.3856 59.2417 79.1943 58.2015 78.6705 57.3164C78.1467 56.4313 77.324 55.7583 76.348 55.4162V52.249C76.3481 52.0586 76.3103 51.87 76.2368 51.6941C76.1633 51.5181 76.0555 51.3583 75.9197 51.2236C75.7838 51.089 75.6225 50.9821 75.445 50.9093C75.2675 50.8364 75.0773 50.799 74.8852 50.799H70.4967V47.899H76.348C76.5401 47.8991 76.7304 47.8616 76.9079 47.7887C77.0854 47.7159 77.2467 47.6091 77.3825 47.4744C77.5184 47.3398 77.6261 47.1799 77.6996 47.004C77.7731 46.828 77.8109 46.6395 77.8109 46.449V43.549L80.8338 43.6041C81.1033 44.3539 81.5756 45.0158 82.199 45.5175C82.8224 46.0193 83.5729 46.3415 84.3686 46.449C85.1642 46.5566 85.9743 46.4452 86.7105 46.1273C87.4466 45.8093 88.0804 45.2969 88.5427 44.646C89.0049 43.9951 89.2777 43.2308 89.3314 42.4367C89.385 41.6425 89.2175 40.849 88.8469 40.1428C88.4764 39.4366 87.9172 38.845 87.2304 38.4326C86.5436 38.0201 85.7557 37.8027 84.9527 37.8041ZM83.6622 21.799C83.9515 21.799 84.2344 21.8841 84.4749 22.0434C84.7155 22.2027 84.903 22.4292 85.0137 22.6941C85.1244 22.9591 85.1534 23.2506 85.0969 23.5319C85.0405 23.8132 84.9012 24.0715 84.6966 24.2743C84.492 24.4771 84.2314 24.6152 83.9476 24.6712C83.6638 24.7271 83.3697 24.6984 83.1024 24.5886C82.8351 24.4789 82.6066 24.293 82.4459 24.0546C82.2852 23.8161 82.1994 23.5358 82.1994 23.249C82.1998 22.8646 82.354 22.496 82.6283 22.2241C82.9025 21.9523 83.2744 21.7994 83.6622 21.799ZM44.9555 62.998C43.7412 61.2818 42.5948 59.6619 41.7555 58.1892C36.9992 49.8446 33.9257 39.7541 33.9257 32.4829C33.9257 18.0225 46.0191 6.60092 61.7196 5.93115V16.0608C61.3313 16.0897 60.9351 16.1246 60.5111 16.1761C60.2082 16.2126 59.9244 16.3422 59.6995 16.5466C59.4745 16.751 59.3198 17.02 59.2568 17.316L58.8111 19.4173C58.444 19.5037 58.0778 19.6014 57.7125 19.7105L56.2547 18.099C56.051 17.8732 55.7811 17.7163 55.4828 17.6505C55.1845 17.5847 54.8729 17.6133 54.5918 17.7323C52.9546 18.4321 51.4093 19.3265 49.9897 20.3958C49.746 20.578 49.5659 20.8311 49.4745 21.1198C49.3832 21.4085 49.3853 21.7183 49.4804 22.0058L50.1519 24.0336C49.8754 24.2913 49.6062 24.5589 49.3455 24.8322L47.3019 24.1666C47.0118 24.0735 46.6997 24.072 46.4088 24.1623C46.1178 24.2526 45.8623 24.4303 45.6776 24.6707C44.5975 26.0781 43.6944 27.6106 42.9884 29.2346C42.8685 29.5132 42.8398 29.822 42.9062 30.1176C42.9725 30.4133 43.1307 30.6808 43.3584 30.8828L44.9848 32.3271C44.8755 32.6854 44.7776 33.0446 44.6912 33.4047L42.4162 33.855C42.0846 33.9206 41.7861 34.0981 41.5716 34.3573C41.3571 34.6165 41.2399 34.9414 41.2399 35.2767V40.2214C41.2399 40.5566 41.3571 40.8815 41.5716 41.1407C41.7861 41.4 42.0846 41.5775 42.4163 41.6431L44.6913 42.0934C44.7777 42.453 44.8755 42.8122 44.9848 43.1709L43.3577 44.6153C43.1303 44.8174 42.9724 45.085 42.906 45.3806C42.8397 45.6761 42.8682 45.9849 42.9877 46.2635C43.6938 47.8874 44.5969 49.42 45.677 50.8273C45.8615 51.068 46.117 51.2458 46.408 51.3362C46.699 51.4265 47.0112 51.4248 47.3012 51.3314L49.3448 50.6659C49.6062 50.9392 49.8748 51.2067 50.1512 51.4645L49.4798 53.4894C49.3847 53.7769 49.3826 54.0866 49.4737 54.3752C49.5649 54.6639 49.7449 54.9171 49.9884 55.0994C51.4079 56.1703 52.9538 57.0656 54.5919 57.7658C54.8731 57.8841 55.1845 57.9123 55.4826 57.8465C55.7808 57.7808 56.0507 57.6243 56.2548 57.3991L57.7126 55.7876C58.0776 55.8967 58.4438 55.9944 58.8112 56.0807L59.2562 58.1807C59.3188 58.4769 59.4735 58.7463 59.6984 58.951C59.9234 59.1557 60.2073 59.2854 60.5104 59.322C60.9348 59.3735 61.3312 59.4084 61.7197 59.4372V75.5H51.3536C50.7557 71.2268 47.7021 66.8797 44.9555 62.998ZM50.0169 37.749C50.0214 40.9573 51.2167 44.0517 53.3749 46.4426C55.5331 48.8335 58.5034 50.3537 61.7196 50.7135V55.6999L61.4775 54.5586C61.4177 54.276 61.2743 54.0175 61.0655 53.8162C60.8567 53.6149 60.592 53.4799 60.3053 53.4286C59.4382 53.2721 58.5858 53.0443 57.7568 52.7475C57.5979 52.6915 57.4305 52.6628 57.2618 52.6625C57.0562 52.6625 56.8529 52.7055 56.6652 52.7887C56.4775 52.8719 56.3096 52.9935 56.1726 53.1454L54.7969 54.6662C54.0346 54.2886 53.2989 53.8604 52.5947 53.3847L53.2297 51.4688C53.3206 51.1943 53.3268 50.8992 53.2475 50.6213C53.1683 50.3433 53.0071 50.0951 52.7847 49.9084C52.1102 49.3423 51.484 48.7218 50.9126 48.0534C50.7237 47.8343 50.4735 47.6757 50.1937 47.5976C49.9139 47.5195 49.617 47.5253 49.3405 47.6144L47.4084 48.2445C46.9283 47.5463 46.4961 46.8168 46.1148 46.061L47.6505 44.6974C47.867 44.5047 48.0207 44.2524 48.0921 43.9727C48.1634 43.6931 48.1492 43.3987 48.0512 43.1271C47.752 42.3053 47.5221 41.4604 47.3641 40.6009C47.3119 40.3145 47.174 40.0504 46.9682 39.8428C46.7625 39.6352 46.4985 39.4937 46.2105 39.4369L44.1656 39.0319V36.4661L46.2106 36.0611C46.4985 36.0043 46.7626 35.8629 46.9683 35.6553C47.174 35.4477 47.312 35.1835 47.3642 34.8972C47.5224 34.0373 47.7522 33.1918 48.0512 32.3695C48.1494 32.0979 48.1637 31.8034 48.0922 31.5236C48.0207 31.2439 47.8667 30.9917 47.6498 30.7992L46.1155 29.437C46.4971 28.6815 46.929 27.9521 47.4084 27.2535L49.3412 27.8836C49.6177 27.9727 49.9146 27.9785 50.1944 27.9003C50.4742 27.8222 50.7244 27.6636 50.9133 27.4447C51.4861 26.7757 52.1126 26.1539 52.7869 25.5854C53.0084 25.3991 53.1688 25.1515 53.2477 24.8743C53.3266 24.5971 53.3203 24.3029 53.2297 24.0292L52.5955 22.1134C53.2995 21.6379 54.035 21.2098 54.7969 20.8319L56.1726 22.3527C56.3671 22.5671 56.6216 22.7194 56.9037 22.7903C57.1857 22.8611 57.4827 22.8473 57.7568 22.7506C58.5857 22.4536 59.4382 22.2257 60.3053 22.0695C60.5919 22.0184 60.8565 21.8838 61.0654 21.6827C61.2742 21.4816 61.4177 21.2233 61.4775 20.9409L61.7196 19.7996V24.7846C58.5034 25.1443 55.5331 26.6645 53.3749 29.0554C51.2167 31.4463 50.0214 34.5408 50.0169 37.749ZM61.7196 27.7148V47.7832C59.2834 47.4375 57.0546 46.2324 55.4424 44.3893C53.8302 42.5461 52.9426 40.1885 52.9426 37.749C52.9426 35.3095 53.8302 32.9518 55.4424 31.1087C57.0546 29.2655 59.2834 28.0605 61.7196 27.7148ZM75.6166 87.1H50.7483C50.5484 87.0967 50.3512 87.0535 50.1685 86.973C49.9858 86.8925 49.8213 86.7764 49.6848 86.6316C49.5483 86.4868 49.4426 86.3162 49.374 86.1301C49.3054 85.9439 49.2753 85.746 49.2855 85.548C49.2859 85.1636 49.4401 84.795 49.7144 84.5232C49.9886 84.2513 50.3605 84.0984 50.7483 84.098H75.6166C75.8165 84.1014 76.0137 84.1446 76.1964 84.225C76.3792 84.3055 76.5437 84.4216 76.6802 84.5664C76.8167 84.7112 76.9224 84.8818 76.991 85.068C77.0596 85.2541 77.0896 85.4521 77.0794 85.65C77.0791 86.0345 76.9248 86.403 76.6506 86.6749C76.3763 86.9467 76.0045 87.0996 75.6166 87.1ZM75.2423 78.4C75.43 78.3829 75.6193 78.4051 75.7977 78.4654C75.9761 78.5257 76.1397 78.6226 76.2778 78.7499C76.4158 78.8771 76.5253 79.0318 76.5989 79.2038C76.6725 79.3758 76.7088 79.5612 76.7052 79.748C76.7048 80.1325 76.5505 80.5011 76.2763 80.7729C76.002 81.0448 75.6302 81.1977 75.2423 81.198H51.1226C50.9227 81.1947 50.7255 81.1515 50.5428 81.071C50.3601 80.9906 50.1956 80.8745 50.059 80.7297C49.9225 80.5849 49.8169 80.4143 49.7483 80.2281C49.6797 80.042 49.6496 79.844 49.6598 79.6461C49.6675 79.467 49.7123 79.2915 49.7912 79.1303C49.8702 78.9691 49.9816 78.8256 50.1188 78.7088C50.2559 78.592 50.4157 78.5043 50.5884 78.4512C50.761 78.3981 50.9429 78.3807 51.1226 78.4H75.2423ZM74.8852 58.049C75.1745 58.049 75.4573 58.1341 75.6979 58.2934C75.9385 58.4527 76.1259 58.6792 76.2367 58.9441C76.3474 59.2091 76.3764 59.5006 76.3199 59.7819C76.2635 60.0632 76.1241 60.3215 75.9196 60.5243C75.715 60.7271 75.4543 60.8652 75.1706 60.9212C74.8868 60.9771 74.5927 60.9484 74.3254 60.8386C74.0581 60.7289 73.8296 60.543 73.6689 60.3046C73.5081 60.0661 73.4223 59.7858 73.4223 59.499C73.4227 59.1146 73.577 58.746 73.8512 58.4741C74.1255 58.2023 74.4973 58.0494 74.8852 58.049ZM71.9595 14.549C72.2488 14.549 72.5316 14.6341 72.7722 14.7934C73.0128 14.9527 73.2003 15.1792 73.311 15.4441C73.4217 15.7091 73.4507 16.0006 73.3942 16.2819C73.3378 16.5632 73.1985 16.8215 72.9939 17.0243C72.7893 17.2271 72.5287 17.3652 72.2449 17.4212C71.9611 17.4771 71.667 17.4484 71.3997 17.3386C71.1324 17.2289 70.9039 17.043 70.7432 16.8046C70.5825 16.5661 70.4967 16.2858 70.4967 15.999C70.4971 15.6146 70.6513 15.246 70.9255 14.9741C71.1998 14.7023 71.5716 14.5494 71.9595 14.549ZM74.8852 44.999H64.6453V30.499H74.8852V44.999ZM84.9527 43.6041C84.6633 43.6041 84.3805 43.5191 84.1399 43.3598C83.8994 43.2004 83.7119 42.974 83.6012 42.709C83.4904 42.4441 83.4615 42.1525 83.5179 41.8713C83.5744 41.59 83.7137 41.3316 83.9183 41.1288C84.1229 40.9261 84.3835 40.788 84.6673 40.732C84.951 40.6761 85.2452 40.7048 85.5125 40.8145C85.7798 40.9243 86.0082 41.1101 86.169 41.3486C86.3297 41.587 86.4155 41.8674 86.4155 42.1541C86.4151 42.5386 86.2609 42.9072 85.9866 43.179C85.7124 43.4509 85.3405 43.6038 84.9527 43.6041Z" fill="white" stroke="white" stroke-width="16.3765" mask="url(#path-3-inside-1)"/>
</svg>
