<svg width="119" height="121" viewBox="0 0 119 121" fill="none" xmlns="http://www.w3.org/2000/svg">
<path d="M61.5384 46.4161H57.3968V50.5577H61.5384V46.4161Z" fill="#023C52"/>
<path d="M18.0708 5H20.1223V9.14161H36.6887V5H82.2465V9.14161H98.813V5H101.229C102.37 5 103.3 5.92772 103.3 7.07081V89.9031C103.3 91.0462 102.37 91.9739 101.229 91.9739H98.813V87.8323H82.2465V91.9739H36.6887V87.8323H20.1223V91.9739H18.0708C16.9298 91.9739 16 91.0462 16 89.9031V7.07081C16 5.92772 16.9298 5 18.0708 5ZM57.3968 9.14161H53.2552V13.2832H57.3968V9.14161ZM57.3968 17.4248H53.2552V29.8497H57.3968V17.4248ZM65.6801 9.14161H61.5384V13.2832H65.6801V9.14161ZM65.6801 17.4248H61.5384V29.8497H65.6801V17.4248ZM73.9633 9.14161H69.8217V13.2832H73.9633V9.14161ZM73.9633 17.4248H69.8217V29.8497H73.9633V17.4248ZM94.6713 62.9826H98.813V58.841H94.6713V62.9826ZM94.6713 54.6994H98.813V50.5578H94.6713V54.6994ZM94.6713 46.4161H98.813V42.2745H94.6713V46.4161ZM94.6713 38.1329H98.813V33.9913H94.6713V38.1329ZM78.1049 62.9826H90.5297V58.841H78.1049V62.9826ZM78.1049 54.6994H90.5297V50.5578H78.1049V54.6994ZM78.1049 46.4161H90.5297V42.2745H78.1049V46.4161ZM78.1049 38.1329H90.5297V33.9913H78.1049V38.1329ZM69.8217 87.8323H73.9633V83.6907H69.8217V87.8323ZM69.8217 79.549H73.9633V67.1242H69.8217V79.549ZM61.5384 87.8323H65.6801V83.6907H61.5384V87.8323ZM61.5384 79.549H65.6801V67.1242H61.5384V79.549ZM53.2552 87.8323H57.3968V83.6907H53.2552V87.8323ZM53.2552 79.549H57.3968V67.1242H53.2552V79.549ZM44.972 87.8323H49.1136V83.6907H44.972V87.8323ZM44.972 79.549H49.1136V67.1242H44.972V79.549ZM44.972 62.9826H73.9633V33.9913H44.972V62.9826ZM44.972 29.8497H49.1136V17.4248H44.972V29.8497ZM44.972 13.2832H49.1136V9.14161H44.972V13.2832ZM28.4055 62.9826H40.8304V58.841H28.4055V62.9826ZM28.4055 54.6994H40.8304V50.5578H28.4055V54.6994ZM28.4055 46.4161H40.8304V42.2745H28.4055V46.4161ZM28.4055 38.1329H40.8304V33.9913H28.4055V38.1329ZM20.1223 62.9826H24.2639V58.841H20.1223V62.9826ZM20.1223 54.6994H24.2639V50.5578H20.1223V54.6994ZM20.1223 46.4161H24.2639V42.2745H20.1223V46.4161ZM20.1223 38.1329H24.2639V33.9913H20.1223V38.1329Z" fill="#023C52"/>
<path d="M49.1137 38.1329H69.8217V58.841H49.1137V38.1329ZM53.2553 54.6994H65.6801V42.2745H53.2553V54.6994Z" fill="#023C52"/>
<path d="M18.5234 115V97.9375H23.7734C25.2734 97.9375 26.6133 98.2773 27.793 98.957C28.9805 99.6289 29.9062 100.59 30.5703 101.84C31.2344 103.082 31.5664 104.496 31.5664 106.082V106.867C31.5664 108.453 31.2383 109.863 30.582 111.098C29.9336 112.332 29.0156 113.289 27.8281 113.969C26.6406 114.648 25.3008 114.992 23.8086 115H18.5234ZM22.0391 100.785V112.176H23.7383C25.1133 112.176 26.1641 111.727 26.8906 110.828C27.6172 109.93 27.9883 108.645 28.0039 106.973V106.07C28.0039 104.336 27.6445 103.023 26.9258 102.133C26.207 101.234 25.1562 100.785 23.7734 100.785H22.0391ZM39.7461 115.234C37.8867 115.234 36.3711 114.664 35.1992 113.523C34.0352 112.383 33.4531 110.863 33.4531 108.965V108.637C33.4531 107.363 33.6992 106.227 34.1914 105.227C34.6836 104.219 35.3789 103.445 36.2773 102.906C37.1836 102.359 38.2148 102.086 39.3711 102.086C41.1055 102.086 42.4688 102.633 43.4609 103.727C44.4609 104.82 44.9609 106.371 44.9609 108.379V109.762H36.8867C36.9961 110.59 37.3242 111.254 37.8711 111.754C38.4258 112.254 39.125 112.504 39.9688 112.504C41.2734 112.504 42.293 112.031 43.0273 111.086L44.6914 112.949C44.1836 113.668 43.4961 114.23 42.6289 114.637C41.7617 115.035 40.8008 115.234 39.7461 115.234ZM39.3594 104.828C38.6875 104.828 38.1406 105.055 37.7188 105.508C37.3047 105.961 37.0391 106.609 36.9219 107.453H41.6328V107.184C41.6172 106.434 41.4141 105.855 41.0234 105.449C40.6328 105.035 40.0781 104.828 39.3594 104.828ZM51.4766 110.863L53.832 102.32H57.3711L53.0938 115H49.8594L45.582 102.32H49.1211L51.4766 110.863ZM62.4453 115H59.0469V102.32H62.4453V115ZM58.8477 99.0391C58.8477 98.5312 59.0156 98.1133 59.3516 97.7852C59.6953 97.457 60.1602 97.293 60.7461 97.293C61.3242 97.293 61.7852 97.457 62.1289 97.7852C62.4727 98.1133 62.6445 98.5312 62.6445 99.0391C62.6445 99.5547 62.4688 99.9766 62.1172 100.305C61.7734 100.633 61.3164 100.797 60.7461 100.797C60.1758 100.797 59.7148 100.633 59.3633 100.305C59.0195 99.9766 58.8477 99.5547 58.8477 99.0391ZM70.5195 112.504C71.1445 112.504 71.6523 112.332 72.043 111.988C72.4336 111.645 72.6367 111.188 72.6523 110.617H75.8281C75.8203 111.477 75.5859 112.266 75.125 112.984C74.6641 113.695 74.0312 114.25 73.2266 114.648C72.4297 115.039 71.5469 115.234 70.5781 115.234C68.7656 115.234 67.3359 114.66 66.2891 113.512C65.2422 112.355 64.7188 110.762 64.7188 108.73V108.508C64.7188 106.555 65.2383 104.996 66.2773 103.832C67.3164 102.668 68.7422 102.086 70.5547 102.086C72.1406 102.086 73.4102 102.539 74.3633 103.445C75.3242 104.344 75.8125 105.543 75.8281 107.043H72.6523C72.6367 106.387 72.4336 105.855 72.043 105.449C71.6523 105.035 71.1367 104.828 70.4961 104.828C69.707 104.828 69.1094 105.117 68.7031 105.695C68.3047 106.266 68.1055 107.195 68.1055 108.484V108.836C68.1055 110.141 68.3047 111.078 68.7031 111.648C69.1016 112.219 69.707 112.504 70.5195 112.504ZM83.5977 115.234C81.7383 115.234 80.2227 114.664 79.0508 113.523C77.8867 112.383 77.3047 110.863 77.3047 108.965V108.637C77.3047 107.363 77.5508 106.227 78.043 105.227C78.5352 104.219 79.2305 103.445 80.1289 102.906C81.0352 102.359 82.0664 102.086 83.2227 102.086C84.957 102.086 86.3203 102.633 87.3125 103.727C88.3125 104.82 88.8125 106.371 88.8125 108.379V109.762H80.7383C80.8477 110.59 81.1758 111.254 81.7227 111.754C82.2773 112.254 82.9766 112.504 83.8203 112.504C85.125 112.504 86.1445 112.031 86.8789 111.086L88.543 112.949C88.0352 113.668 87.3477 114.23 86.4805 114.637C85.6133 115.035 84.6523 115.234 83.5977 115.234ZM83.2109 104.828C82.5391 104.828 81.9922 105.055 81.5703 105.508C81.1562 105.961 80.8906 106.609 80.7734 107.453H85.4844V107.184C85.4688 106.434 85.2656 105.855 84.875 105.449C84.4844 105.035 83.9297 104.828 83.2109 104.828ZM97.6133 111.496C97.6133 111.082 97.4062 110.758 96.9922 110.523C96.5859 110.281 95.9297 110.066 95.0234 109.879C92.0078 109.246 90.5 107.965 90.5 106.035C90.5 104.91 90.9648 103.973 91.8945 103.223C92.832 102.465 94.0547 102.086 95.5625 102.086C97.1719 102.086 98.457 102.465 99.418 103.223C100.387 103.98 100.871 104.965 100.871 106.176H97.4844C97.4844 105.691 97.3281 105.293 97.0156 104.98C96.7031 104.66 96.2148 104.5 95.5508 104.5C94.9805 104.5 94.5391 104.629 94.2266 104.887C93.9141 105.145 93.7578 105.473 93.7578 105.871C93.7578 106.246 93.9336 106.551 94.2852 106.785C94.6445 107.012 95.2461 107.211 96.0898 107.383C96.9336 107.547 97.6445 107.734 98.2227 107.945C100.012 108.602 100.906 109.738 100.906 111.355C100.906 112.512 100.41 113.449 99.418 114.168C98.4258 114.879 97.1445 115.234 95.5742 115.234C94.5117 115.234 93.5664 115.047 92.7383 114.672C91.918 114.289 91.2734 113.77 90.8047 113.113C90.3359 112.449 90.1016 111.734 90.1016 110.969H93.3125C93.3438 111.57 93.5664 112.031 93.9805 112.352C94.3945 112.672 94.9492 112.832 95.6445 112.832C96.293 112.832 96.7812 112.711 97.1094 112.469C97.4453 112.219 97.6133 111.895 97.6133 111.496Z" fill="black"/>
</svg>
