<svg width="122" height="124" viewBox="0 0 122 124" fill="none" xmlns="http://www.w3.org/2000/svg">
<path d="M117.862 53.9541L117.854 53.9456L68.4431 3.49078C66.337 1.33915 63.5369 0.15387 60.5584 0.15387C57.58 0.15387 54.7798 1.33821 52.6728 3.48984L3.28818 53.9191C3.27155 53.9361 3.25491 53.9541 3.23828 53.971C-1.08665 58.413 -1.07926 65.62 3.25954 70.0507C5.2418 72.0759 7.85986 73.2489 10.6591 73.3716C10.7727 73.3829 10.8873 73.3886 11.0028 73.3886H12.9722V110.52C12.9722 117.868 18.8265 123.846 26.0237 123.846H45.3546C47.3138 123.846 48.9033 122.224 48.9033 120.222V111.888C48.9033 108.535 51.574 105.808 54.8575 105.808H66.2594C69.5428 105.808 72.2136 108.535 72.2136 111.888V120.222C72.2136 122.224 73.8022 123.846 75.7622 123.846H95.0932C102.29 123.846 108.145 117.868 108.145 110.52V73.3886H109.971C112.948 73.3886 115.748 72.2042 117.856 70.0526C122.2 65.6144 122.202 58.3951 117.862 53.9541Z" fill="#8C8C8C"/>
<path d="M10.0569 64.3667L9.9766 64.5221L9.79038 64.8823M10.0569 64.3667L10.1081 65.0131C10.1082 65.0131 10.1082 65.0131 10.1082 65.0132C10.4953 65.1202 11.0415 65.2011 11.7441 65.2477C12.434 65.2934 13.1664 65.3 13.9111 65.2988C14.0302 65.2987 14.1541 65.2982 14.2802 65.2977C14.8778 65.2955 15.5183 65.2933 16.0361 65.3168L16.1254 65.3208L16.1474 65.3231L16.1857 65.327H16.2242H20.7756L20.8673 108.385C20.8673 108.385 20.8673 108.385 20.8673 108.385C20.8676 112.649 24.1196 115.819 27.7488 115.819H39.862H40.612V115.069V105.467C40.612 101.248 43.9013 97.5385 48.2881 97.5385H73.3621C77.7489 97.5385 81.0381 101.248 81.0381 105.467V115.069V115.819H81.7881H93.3789C97.0072 115.819 100.259 112.65 100.26 108.388V108.388V108.385V108.383L100.169 65.327H104.689C105.505 65.327 106.98 65.1434 108.439 64.7518C109.153 64.5602 109.787 64.3387 110.286 64.1071C110.51 64.0028 110.673 63.9132 110.786 63.8441C110.843 63.8095 110.887 63.78 110.921 63.7564C110.928 63.7515 110.934 63.7469 110.94 63.7425C110.949 63.7363 110.956 63.7306 110.963 63.7254L110.979 63.7134L110.986 63.7083L110.988 63.7059L110.99 63.7048L110.991 63.7043L110.991 63.704C110.991 63.7039 110.991 63.7037 110.519 63.121L110.991 63.7037L111.03 63.672L111.065 63.6354C112.43 62.1862 112.685 61.2605 112.685 60.7171C112.685 60.1781 112.436 59.2626 111.1 57.8324L111.09 57.8219L111.08 57.8118L64.3072 11.4354L64.2548 11.3801C63.2107 10.2776 61.8755 9.71156 60.4774 9.71156C59.0787 9.71156 57.7435 10.2774 56.6989 11.3799L56.6626 11.4182L9.91265 59.126L9.90748 59.1313L9.90241 59.1366C8.52291 60.601 8.26834 61.532 8.26924 62.0757C8.27009 62.5896 8.50031 63.4497 9.69467 64.776L9.79038 64.8823M10.0569 64.3667C10.0397 64.4123 10.0239 64.4541 10.0094 64.4925C9.84604 64.925 9.84598 64.925 9.84592 64.925L9.84577 64.9249L9.84548 64.9248L9.8449 64.9246L9.84374 64.9242L9.84143 64.9233L9.8369 64.9215L9.82812 64.918L9.81911 64.9142M10.0569 64.3667L9.81911 64.9142M9.79038 64.8823L9.78268 64.8971C9.79151 64.9017 9.80114 64.9063 9.81165 64.911L9.81911 64.9142M9.79038 64.8823L9.81911 64.9142M65.9722 9.75362L65.9803 9.76218L65.9887 9.77048L112.764 56.149C112.764 56.1497 112.765 56.1504 112.766 56.1512C114.359 57.8367 115.051 59.3237 115.051 60.7181C115.05 62.113 114.356 63.6002 112.76 65.2855C112.133 65.9474 110.809 66.5481 109.222 66.9899C107.673 67.4215 106.032 67.6591 104.92 67.6892C104.84 67.6914 104.763 67.6924 104.689 67.6924H103.291H102.539L102.541 68.444L102.626 108.385C102.626 108.385 102.626 108.386 102.626 108.386C102.625 113.827 98.4393 118.184 93.3789 118.184H80.6408C79.5913 118.184 78.6727 117.275 78.6727 116.066V105.467C78.6727 102.437 76.3289 99.9039 73.3621 99.9039H48.2881C45.3213 99.9039 42.9774 102.437 42.9774 105.467V116.066C42.9774 117.275 42.0582 118.184 41.0093 118.184H27.7488C22.6878 118.184 18.5019 113.826 18.5019 108.385L18.5019 108.383L18.4168 68.4408L18.4152 67.6924H17.6668H16.1584C16.0953 67.6924 16.0332 67.6892 15.9719 67.6829L15.9505 67.6807L15.929 67.6797C15.4753 67.6592 14.9245 67.6611 14.3458 67.663L14.3311 67.6631C13.1627 67.667 11.8444 67.6704 10.6714 67.5215C9.45507 67.3672 8.60453 67.0705 8.19508 66.6382L8.19496 66.638C6.60061 64.9553 5.90616 63.4716 5.90386 62.0796C5.90156 60.6876 6.59102 59.2023 8.18017 57.5153L8.18337 57.5119L8.21496 57.4779L54.973 9.76208L54.9731 9.76215L54.9818 9.75299C56.4586 8.19434 58.4084 7.34618 60.4774 7.34618C62.5463 7.34618 64.4961 8.19497 65.9722 9.75362Z" fill="white" stroke="white" stroke-width="1.5"/>
</svg>
