<svg width="94" height="134" viewBox="0 0 94 134" fill="none" xmlns="http://www.w3.org/2000/svg">
<path d="M93.6539 47.003C93.6539 58.1478 89.0654 73.3993 81.5458 86.4428C77.0188 94.2952 67.1484 104.38 67.1484 113.385H47.2693V5.15384C72.8868 5.15384 93.6539 23.282 93.6539 47.003Z" fill="#8C8C8C"/>
<path d="M0.884644 45.4225C0.884644 56.8326 5.47317 72.4473 12.9927 85.8013C17.5197 93.8407 27.3901 104.166 27.3901 113.385H47.2693V2.57692C21.6517 2.57692 0.884644 21.1367 0.884644 45.4225Z" fill="#8C8C8C"/>
<path d="M65.1938 121.357H29.3447C28.1914 121.357 27.0854 120.899 26.2698 120.083C25.4543 119.268 24.9962 118.162 24.9962 117.008V116.856C25.0026 116.301 25.1218 115.752 25.3466 115.245C25.5713 114.737 25.8969 114.28 26.3036 113.902C26.7102 113.524 27.1895 113.232 27.7123 113.045C28.2351 112.858 28.7905 112.779 29.3447 112.813H65.1938C65.7481 112.779 66.3035 112.858 66.8263 113.045C67.349 113.232 67.8283 113.524 68.235 113.902C68.6417 114.28 68.9673 114.737 69.192 115.245C69.4167 115.752 69.5359 116.301 69.5424 116.856V117.008C69.5424 118.162 69.0842 119.268 68.2687 120.083C67.4532 120.899 66.3471 121.357 65.1938 121.357Z" fill="#8C8C8C"/>
<path d="M65.7506 121.357H28.7879C26.3862 121.357 24.4393 123.304 24.4393 125.706V125.858C24.4393 128.26 26.3862 130.207 28.7879 130.207H65.7506C68.1523 130.207 70.0992 128.26 70.0992 125.858V125.706C70.0992 123.304 68.1523 121.357 65.7506 121.357Z" fill="#8C8C8C"/>
<path d="M47.2693 71.3485C42.656 71.3485 38.2317 69.5159 34.9697 66.2539C31.7076 62.9918 29.875 58.5676 29.875 53.9543C29.875 49.3411 31.7076 44.9168 34.9697 41.6547C38.2317 38.3927 42.656 36.5601 47.2693 36.5601" fill="#8C8C8C"/>
<path d="M80.8067 53.6064C79.4667 53.6106 78.1608 54.0423 77.0683 54.842C75.9758 55.6418 75.1503 56.7704 74.7051 58.073L70.2273 57.9881V49.0548H78.8951C79.1797 49.0549 79.4615 48.9972 79.7245 48.885C79.9874 48.7728 80.2263 48.6083 80.4276 48.4009C80.6288 48.1935 80.7884 47.9472 80.8973 47.6762C81.0062 47.4052 81.0622 47.1148 81.0621 46.8215V37.4766C82.508 36.9498 83.7267 35.9132 84.5027 34.5499C85.2787 33.1866 85.5621 31.5845 85.3028 30.0267C85.0436 28.4689 84.2583 27.0557 83.0858 26.0369C81.9133 25.0181 80.4291 24.4593 78.8955 24.4592C77.3619 24.4592 75.8777 25.0179 74.7051 26.0366C73.5326 27.0553 72.7472 28.4685 72.4879 30.0263C72.2285 31.5841 72.5118 33.1862 73.2877 34.5495C74.0637 35.9129 75.2823 36.9496 76.7282 37.4765V44.5881H70.2273V40.1215C70.2274 39.8282 70.1714 39.5377 70.0625 39.2667C69.9536 38.9957 69.794 38.7495 69.5928 38.5421C69.3915 38.3347 69.1526 38.1702 68.8897 38.058C68.6267 37.9458 68.3449 37.8881 68.0603 37.8881H63.7264V26.3099C65.1723 25.7831 66.391 24.7465 67.167 23.3832C67.943 22.02 68.2265 20.4178 67.9672 18.86C67.7079 17.3022 66.9226 15.889 65.7501 14.8702C64.5776 13.8514 63.0934 13.2926 61.5598 13.2925C60.0263 13.2925 58.542 13.8512 57.3695 14.8699C56.1969 15.8887 55.4116 17.3018 55.1522 18.8596C54.8928 20.4174 55.1761 22.0196 55.9521 23.3829C56.728 24.7462 57.9466 25.7829 59.3925 26.3098V37.8881H50.7247V2.23333C50.7248 1.94003 50.6688 1.64958 50.5599 1.37858C50.451 1.10758 50.2914 0.861351 50.0902 0.653951C49.8889 0.446551 49.65 0.282048 49.3871 0.169841C49.1241 0.0576335 48.8423 -7.91437e-05 48.5577 8.14567e-08C21.8252 8.14567e-08 0.884644 19.9473 0.884644 45.4104C0.884644 57.5061 5.54339 73.5212 13.0442 87.2025C14.3911 89.6583 16.1486 92.2406 18.0087 94.9755C21.9418 100.754 26.3191 107.252 26.7951 112.909C25.9746 113.506 25.3085 114.302 24.8548 115.226C24.4011 116.15 24.1736 117.174 24.1921 118.21C24.1983 119.72 24.7042 121.182 25.6263 122.356C24.9914 123.002 24.4884 123.772 24.1469 124.621C23.8053 125.47 23.6322 126.381 23.6377 127.3C23.6396 129.076 24.3251 130.779 25.5438 132.035C26.7626 133.292 28.415 133.998 30.1386 134H66.9769C67.8419 133.994 68.6973 133.812 69.4936 133.464C70.2899 133.115 71.0112 132.607 71.6158 131.97C72.2203 131.332 72.6962 130.577 73.0158 129.749C73.3354 128.92 73.4924 128.034 73.4777 127.143C73.477 126.244 73.3 125.354 72.9573 124.528C72.6145 123.701 72.1132 122.954 71.4834 122.332C72.4173 121.114 72.9247 119.606 72.9233 118.053C72.9217 117.188 72.7502 116.332 72.419 115.537C72.0878 114.743 71.6039 114.025 70.9964 113.428C70.3889 112.832 69.6705 112.368 68.8843 112.065C68.0982 111.762 67.2608 111.627 66.4224 111.667H50.7247V69.1548H55.0586V75.8548C55.0585 76.1481 55.1145 76.4386 55.2234 76.7096C55.3323 76.9806 55.4919 77.2268 55.6931 77.4342C55.8943 77.6416 56.1333 77.8061 56.3962 77.9183C56.6591 78.0305 56.941 78.0882 57.2255 78.0881H63.7264V80.733C62.2806 81.2598 61.062 82.2965 60.2861 83.6598C59.5102 85.023 59.2268 86.6251 59.4861 88.1828C59.7455 89.7406 60.5307 91.1537 61.7032 92.1724C62.8757 93.1911 64.3599 93.7498 65.8934 93.7498C67.4269 93.7498 68.9111 93.1911 70.0835 92.1724C71.256 91.1537 72.0413 89.7406 72.3006 88.1828C72.5599 86.6251 72.2766 85.023 71.5007 83.6598C70.7247 82.2965 69.5062 81.2598 68.0603 80.733V75.8548C68.0604 75.5615 68.0044 75.2711 67.8955 75.0001C67.7867 74.7291 67.6271 74.4828 67.4258 74.2754C67.2246 74.068 66.9857 73.9035 66.7227 73.7913C66.4598 73.6791 66.178 73.6214 65.8934 73.6215H59.3925V69.1548H68.0603C68.3449 69.1549 68.6267 69.0972 68.8897 68.985C69.1526 68.8728 69.3915 68.7083 69.5928 68.5009C69.794 68.2935 69.9536 68.0472 70.0625 67.7762C70.1714 67.5052 70.2274 67.2148 70.2273 66.9215V62.4548L74.7053 62.5397C75.1046 63.6945 75.8042 64.714 76.7276 65.4868C77.6511 66.2596 78.7628 66.7559 79.9415 66.9215C81.1201 67.0871 82.3202 66.9157 83.4106 66.4259C84.5011 65.9361 85.44 65.1469 86.1247 64.1444C86.8094 63.1419 87.2136 61.9647 87.2931 60.7415C87.3726 59.5183 87.1243 58.2961 86.5754 57.2085C86.0266 56.1208 85.1982 55.2096 84.1808 54.5743C83.1634 53.9391 81.9962 53.6042 80.8067 53.6064ZM78.8951 28.9548C79.3237 28.9548 79.7427 29.0858 80.099 29.3312C80.4554 29.5766 80.7331 29.9254 80.8971 30.3335C81.0611 30.7416 81.1041 31.1906 81.0204 31.6238C80.9368 32.0571 80.7305 32.455 80.4274 32.7673C80.1243 33.0797 79.7382 33.2924 79.3179 33.3786C78.8975 33.4647 78.4618 33.4205 78.0659 33.2515C77.6699 33.0824 77.3315 32.7962 77.0934 32.4289C76.8553 32.0616 76.7282 31.6299 76.7282 31.1881C76.7287 30.596 76.9572 30.0283 77.3635 29.6096C77.7697 29.1909 78.3206 28.9554 78.8951 28.9548ZM21.5574 92.4107C19.7587 89.7673 18.0605 87.2723 16.8172 85.0041C9.77149 72.1515 5.21856 56.6098 5.21856 45.4104C5.21856 23.1381 23.133 5.54624 46.3908 4.51464V20.1167C45.8156 20.1611 45.2286 20.215 44.6005 20.2942C44.1518 20.3505 43.7314 20.55 43.3982 20.8649C43.065 21.1797 42.8358 21.594 42.7425 22.0499L42.0822 25.2865C41.5384 25.4195 40.9959 25.57 40.4549 25.7379L38.2953 23.256C37.9936 22.9081 37.5937 22.6665 37.1519 22.5652C36.71 22.4638 36.2484 22.5079 35.8321 22.6911C33.4068 23.7689 31.1176 25.1465 29.0148 26.7935C28.6538 27.0741 28.387 27.464 28.2517 27.9087C28.1164 28.3534 28.1194 28.8305 28.2604 29.2733L29.255 32.3965C28.8455 32.7934 28.4468 33.2056 28.0605 33.6266L25.0332 32.6015C24.6035 32.4581 24.1412 32.4558 23.7102 32.5948C23.2792 32.7339 22.9007 33.0076 22.6271 33.3779C21.0271 35.5455 19.6893 37.906 18.6434 40.4073C18.466 40.8364 18.4234 41.312 18.5217 41.7674C18.62 42.2227 18.8542 42.6349 19.1915 42.9459L21.6008 45.1705C21.4389 45.7223 21.294 46.2756 21.1659 46.8303L17.7959 47.5238C17.3046 47.6249 16.8625 47.8983 16.5447 48.2975C16.227 48.6967 16.0534 49.1971 16.0533 49.7135V57.3295C16.0534 57.8459 16.227 58.3463 16.5448 58.7455C16.8625 59.1448 17.3047 59.4182 17.796 59.5192L21.166 60.2127C21.2941 60.7667 21.439 61.32 21.6009 61.8725L19.1906 64.0971C18.8537 64.4085 18.6197 64.8206 18.5215 65.2758C18.4232 65.7311 18.4655 66.2066 18.6425 66.6358C19.6885 69.1369 21.0262 71.4974 22.6262 73.6651C22.8995 74.0358 23.2779 74.3097 23.7091 74.4488C24.1402 74.5879 24.6026 74.5854 25.0322 74.4415L28.0595 73.4164C28.4467 73.8374 28.8446 74.2495 29.2541 74.6465L28.2594 77.7653C28.1185 78.208 28.1154 78.6851 28.2505 79.1297C28.3856 79.5743 28.6521 79.9643 29.0128 80.2451C31.1157 81.8944 33.4057 83.2735 35.8322 84.3519C36.2487 84.5341 36.71 84.5776 37.1517 84.4763C37.5933 84.375 37.9932 84.134 38.2954 83.7871L40.455 81.3051C40.9957 81.473 41.5381 81.6235 42.0824 81.7566L42.7416 84.991C42.8344 85.4472 43.0635 85.8621 43.3967 86.1773C43.7299 86.4926 44.1505 86.6925 44.5996 86.7488C45.2282 86.8282 45.8154 86.8819 46.3909 86.9263V111.667H31.0352C30.1496 105.085 25.6261 98.3895 21.5574 92.4107ZM29.0551 53.5215C29.0618 58.4629 30.8324 63.2291 34.0294 66.9116C37.2265 70.5941 41.6264 72.9356 46.3908 73.4897V81.1699L46.0321 79.412C45.9436 78.9768 45.7311 78.5786 45.4217 78.2686C45.1124 77.9585 44.7204 77.7507 44.2957 77.6716C43.0112 77.4307 41.7485 77.0798 40.5205 76.6226C40.2851 76.5364 40.0371 76.4921 39.7873 76.4917C39.4827 76.4917 39.1815 76.5579 38.9035 76.6861C38.6254 76.8143 38.3767 77.0014 38.1737 77.2354L36.1358 79.5778C35.0066 78.9962 33.9168 78.3367 32.8737 77.604L33.8144 74.6531C33.949 74.2304 33.9582 73.7758 33.8407 73.3477C33.7233 72.9195 33.4846 72.5372 33.1552 72.2497C32.1559 71.3777 31.2283 70.4221 30.3819 69.3926C30.1021 69.0552 29.7315 68.8109 29.317 68.6905C28.9025 68.5702 28.4626 68.5792 28.0531 68.7165L25.191 69.687C24.4798 68.6115 23.8396 67.4879 23.2748 66.3239L25.5497 64.2236C25.8704 63.9267 26.0981 63.5381 26.2038 63.1074C26.3095 62.6767 26.2884 62.2233 26.1432 61.8049C25.7 60.5393 25.3595 59.2378 25.1254 57.914C25.0481 57.473 24.8437 57.0661 24.539 56.7463C24.2342 56.4266 23.8431 56.2088 23.4166 56.1213L20.3873 55.4975V51.5455L23.4167 50.9217C23.8432 50.8342 24.2343 50.6164 24.5391 50.2967C24.8438 49.9769 25.0482 49.57 25.1255 49.129C25.3598 47.8045 25.7003 46.5023 26.1432 45.2358C26.2887 44.8174 26.3099 44.3638 26.204 43.933C26.098 43.5021 25.8699 43.1136 25.5486 42.8171L23.2758 40.7191C23.8411 39.5555 24.4809 38.432 25.191 37.356L28.0541 38.3265C28.4637 38.4636 28.9035 38.4726 29.318 38.3522C29.7325 38.2319 30.1031 37.9877 30.383 37.6504C31.2314 36.6201 32.1596 35.6624 33.1583 34.7868C33.4865 34.4997 33.7242 34.1184 33.841 33.6914C33.9579 33.2645 33.9486 32.8114 33.8143 32.3899L32.8748 29.439C33.9178 28.7067 35.0072 28.0473 36.1358 27.4652L38.1737 29.8076C38.4619 30.1379 38.8389 30.3724 39.2567 30.4816C39.6746 30.5907 40.1144 30.5694 40.5205 30.4204C41.7484 29.963 43.0112 29.6121 44.2957 29.3714C44.7202 29.2928 45.1122 29.0853 45.4216 28.7757C45.7309 28.466 45.9435 28.0681 46.032 27.6331L46.3908 25.8752V33.5532C41.6264 34.1074 37.2265 36.4488 34.0294 40.1314C30.8324 43.8139 29.0618 48.58 29.0551 53.5215ZM46.3908 38.0664V68.9764C42.7818 68.4439 39.4803 66.5879 37.0921 63.749C34.7038 60.9101 33.389 57.2788 33.389 53.5214C33.389 49.764 34.7038 46.1327 37.0921 43.2938C39.4803 40.4549 42.7818 38.5989 46.3908 38.0664ZM66.9769 129.533H30.1386C29.8424 129.528 29.5503 129.462 29.2797 129.338C29.009 129.214 28.7653 129.035 28.5631 128.812C28.3609 128.589 28.2043 128.326 28.1027 128.039C28.0011 127.753 27.9565 127.448 27.9716 127.143C27.9722 126.551 28.2007 125.983 28.6069 125.564C29.0132 125.146 29.564 124.91 30.1386 124.91H66.9769C67.273 124.915 67.5651 124.981 67.8358 125.105C68.1065 125.229 68.3502 125.408 68.5524 125.631C68.7546 125.854 68.9111 126.117 69.0127 126.404C69.1144 126.69 69.1589 126.995 69.1438 127.3C69.1432 127.892 68.9148 128.46 68.5085 128.879C68.1022 129.297 67.5514 129.533 66.9769 129.533ZM66.4224 116.133C66.7005 116.107 66.9808 116.141 67.2451 116.234C67.5094 116.327 67.7517 116.476 67.9563 116.672C68.1608 116.868 68.3229 117.106 68.432 117.371C68.5411 117.636 68.5947 117.922 68.5894 118.21C68.5888 118.802 68.3603 119.369 67.9541 119.788C67.5478 120.207 66.997 120.442 66.4224 120.443H30.693C30.3969 120.438 30.1048 120.371 29.8341 120.247C29.5634 120.123 29.3197 119.945 29.1175 119.722C28.9153 119.499 28.7587 119.236 28.6571 118.949C28.5555 118.662 28.5109 118.357 28.5261 118.053C28.5375 117.777 28.6038 117.506 28.7208 117.258C28.8377 117.01 29.0029 116.789 29.206 116.609C29.4091 116.429 29.6459 116.294 29.9016 116.212C30.1574 116.13 30.4268 116.104 30.693 116.133H66.4224ZM65.8934 84.7881C66.322 84.7881 66.7409 84.9191 67.0973 85.1645C67.4536 85.4099 67.7314 85.7587 67.8954 86.1668C68.0594 86.5749 68.1023 87.024 68.0187 87.4572C67.9351 87.8904 67.7287 88.2883 67.4257 88.6007C67.1226 88.913 66.7365 89.1257 66.3161 89.2119C65.8958 89.2981 65.4601 89.2538 65.0641 89.0848C64.6682 88.9158 64.3297 88.6295 64.0916 88.2623C63.8535 87.895 63.7264 87.4632 63.7264 87.0215C63.727 86.4293 63.9555 85.8616 64.3617 85.4429C64.768 85.0242 65.3188 84.7887 65.8934 84.7881ZM61.5595 17.7881C61.988 17.7881 62.407 17.9191 62.7634 18.1645C63.1197 18.4099 63.3975 18.7587 63.5615 19.1668C63.7255 19.5749 63.7684 20.024 63.6848 20.4572C63.6012 20.8904 63.3948 21.2883 63.0917 21.6007C62.7887 21.913 62.4026 22.1257 61.9822 22.2119C61.5619 22.2981 61.1262 22.2538 60.7302 22.0848C60.3342 21.9158 59.9958 21.6295 59.7577 21.2623C59.5196 20.895 59.3925 20.4632 59.3925 20.0215C59.3931 19.4293 59.6216 18.8616 60.0278 18.4429C60.4341 18.0242 60.9849 17.7887 61.5595 17.7881ZM65.8934 64.6881H50.7247V42.3548H65.8934V64.6881ZM80.8067 62.5397C80.3781 62.5397 79.9592 62.4087 79.6028 62.1633C79.2465 61.9179 78.9687 61.5691 78.8047 61.161C78.6407 60.753 78.5978 60.3039 78.6814 59.8707C78.765 59.4375 78.9714 59.0395 79.2744 58.7272C79.5775 58.4148 79.9636 58.2021 80.3839 58.116C80.8043 58.0298 81.24 58.074 81.636 58.2431C82.0319 58.4121 82.3704 58.6983 82.6085 59.0656C82.8466 59.4329 82.9737 59.8647 82.9737 60.3064C82.9731 60.8985 82.7446 61.4662 82.3383 61.8849C81.9321 62.3036 81.3812 62.5391 80.8067 62.5397Z" fill="white"/>
</svg>
