<svg width="119" height="121" viewBox="0 0 119 121" fill="none" xmlns="http://www.w3.org/2000/svg">
<path d="M95.4203 51.2549H87.6093C88.4055 53.4347 88.8405 55.7871 88.8405 58.2389V87.7598C88.8405 88.782 88.6625 89.7632 88.3388 90.6758H101.252C106.076 90.6758 110 86.7514 110 81.9278V65.8347C110 57.7955 103.46 51.2549 95.4203 51.2549Z" fill="#023C52"/>
<path d="M30.1597 58.2391C30.1597 55.7871 30.5947 53.4349 31.3909 51.2551H23.5799C15.5406 51.2551 9 57.7957 9 65.8351V81.9282C9 86.7518 12.9242 90.6762 17.748 90.6762H30.6614C30.3377 89.7632 30.1597 88.7822 30.1597 87.76V58.2391V58.2391Z" fill="#023C52"/>
<path d="M68.4286 43.6592H50.5716C42.5323 43.6592 35.9917 50.1998 35.9917 58.2391V87.76C35.9917 89.3703 37.2972 90.676 38.9077 90.676H80.0925C81.703 90.676 83.0085 89.3705 83.0085 87.76V58.2391C83.0085 50.1998 76.4679 43.6592 68.4286 43.6592Z" fill="#023C52"/>
<path d="M59.5001 5C49.8317 5 41.9659 12.8658 41.9659 22.5344C41.9659 29.0925 45.5855 34.8201 50.9311 37.8272C53.4665 39.2535 56.3896 40.0686 59.5001 40.0686C62.6106 40.0686 65.5337 39.2535 68.0691 37.8272C73.4148 34.8201 77.0343 29.0923 77.0343 22.5344C77.0343 12.866 69.1685 5 59.5001 5Z" fill="#023C52"/>
<path d="M28.7104 21.3433C21.4796 21.3433 15.5972 27.2258 15.5972 34.4566C15.5972 41.6873 21.4796 47.5698 28.7104 47.5698C30.5446 47.5698 32.2912 47.1899 33.8778 46.5069C36.621 45.3259 38.8829 43.2353 40.2825 40.6166C41.2648 38.7786 41.8237 36.6819 41.8237 34.4566C41.8237 27.226 35.9412 21.3433 28.7104 21.3433Z" fill="#023C52"/>
<path d="M90.2897 21.3433C83.059 21.3433 77.1765 27.2258 77.1765 34.4566C77.1765 36.6821 77.7353 38.7788 78.7177 40.6166C80.1173 43.2355 82.3792 45.3261 85.1224 46.5069C86.709 47.1899 88.4556 47.5698 90.2897 47.5698C97.5205 47.5698 103.403 41.6873 103.403 34.4566C103.403 27.2258 97.5205 21.3433 90.2897 21.3433Z" fill="#023C52"/>
<path d="M17.1328 108.988V115H13.6172V97.9375H20.2734C21.5547 97.9375 22.6797 98.1719 23.6484 98.6406C24.625 99.1094 25.375 99.7773 25.8984 100.645C26.4219 101.504 26.6836 102.484 26.6836 103.586C26.6836 105.258 26.1094 106.578 24.9609 107.547C23.8203 108.508 22.2383 108.988 20.2148 108.988H17.1328ZM17.1328 106.141H20.2734C21.2031 106.141 21.9102 105.922 22.3945 105.484C22.8867 105.047 23.1328 104.422 23.1328 103.609C23.1328 102.773 22.8867 102.098 22.3945 101.582C21.9023 101.066 21.2227 100.801 20.3555 100.785H17.1328V106.141ZM34.5586 115.234C32.6992 115.234 31.1836 114.664 30.0117 113.523C28.8477 112.383 28.2656 110.863 28.2656 108.965V108.637C28.2656 107.363 28.5117 106.227 29.0039 105.227C29.4961 104.219 30.1914 103.445 31.0898 102.906C31.9961 102.359 33.0273 102.086 34.1836 102.086C35.918 102.086 37.2812 102.633 38.2734 103.727C39.2734 104.82 39.7734 106.371 39.7734 108.379V109.762H31.6992C31.8086 110.59 32.1367 111.254 32.6836 111.754C33.2383 112.254 33.9375 112.504 34.7812 112.504C36.0859 112.504 37.1055 112.031 37.8398 111.086L39.5039 112.949C38.9961 113.668 38.3086 114.23 37.4414 114.637C36.5742 115.035 35.6133 115.234 34.5586 115.234ZM34.1719 104.828C33.5 104.828 32.9531 105.055 32.5312 105.508C32.1172 105.961 31.8516 106.609 31.7344 107.453H36.4453V107.184C36.4297 106.434 36.2266 105.855 35.8359 105.449C35.4453 105.035 34.8906 104.828 34.1719 104.828ZM48.832 105.496C48.3711 105.434 47.9648 105.402 47.6133 105.402C46.332 105.402 45.4922 105.836 45.0938 106.703V115H41.707V102.32H44.9062L45 103.832C45.6797 102.668 46.6211 102.086 47.8242 102.086C48.1992 102.086 48.5508 102.137 48.8789 102.238L48.832 105.496ZM57.3398 111.496C57.3398 111.082 57.1328 110.758 56.7188 110.523C56.3125 110.281 55.6562 110.066 54.75 109.879C51.7344 109.246 50.2266 107.965 50.2266 106.035C50.2266 104.91 50.6914 103.973 51.6211 103.223C52.5586 102.465 53.7812 102.086 55.2891 102.086C56.8984 102.086 58.1836 102.465 59.1445 103.223C60.1133 103.98 60.5977 104.965 60.5977 106.176H57.2109C57.2109 105.691 57.0547 105.293 56.7422 104.98C56.4297 104.66 55.9414 104.5 55.2773 104.5C54.707 104.5 54.2656 104.629 53.9531 104.887C53.6406 105.145 53.4844 105.473 53.4844 105.871C53.4844 106.246 53.6602 106.551 54.0117 106.785C54.3711 107.012 54.9727 107.211 55.8164 107.383C56.6602 107.547 57.3711 107.734 57.9492 107.945C59.7383 108.602 60.6328 109.738 60.6328 111.355C60.6328 112.512 60.1367 113.449 59.1445 114.168C58.1523 114.879 56.8711 115.234 55.3008 115.234C54.2383 115.234 53.293 115.047 52.4648 114.672C51.6445 114.289 51 113.77 50.5312 113.113C50.0625 112.449 49.8281 111.734 49.8281 110.969H53.0391C53.0703 111.57 53.293 112.031 53.707 112.352C54.1211 112.672 54.6758 112.832 55.3711 112.832C56.0195 112.832 56.5078 112.711 56.8359 112.469C57.1719 112.219 57.3398 111.895 57.3398 111.496ZM62.2969 108.543C62.2969 107.285 62.5391 106.164 63.0234 105.18C63.5078 104.195 64.2031 103.434 65.1094 102.895C66.0234 102.355 67.082 102.086 68.2852 102.086C69.9961 102.086 71.3906 102.609 72.4688 103.656C73.5547 104.703 74.1602 106.125 74.2852 107.922L74.3086 108.789C74.3086 110.734 73.7656 112.297 72.6797 113.477C71.5938 114.648 70.1367 115.234 68.3086 115.234C66.4805 115.234 65.0195 114.648 63.9258 113.477C62.8398 112.305 62.2969 110.711 62.2969 108.695V108.543ZM65.6836 108.789C65.6836 109.992 65.9102 110.914 66.3633 111.555C66.8164 112.188 67.4648 112.504 68.3086 112.504C69.1289 112.504 69.7695 112.191 70.2305 111.566C70.6914 110.934 70.9219 109.926 70.9219 108.543C70.9219 107.363 70.6914 106.449 70.2305 105.801C69.7695 105.152 69.1211 104.828 68.2852 104.828C67.457 104.828 66.8164 105.152 66.3633 105.801C65.9102 106.441 65.6836 107.438 65.6836 108.789ZM79.5117 102.32L79.6172 103.785C80.5234 102.652 81.7383 102.086 83.2617 102.086C84.6055 102.086 85.6055 102.48 86.2617 103.27C86.918 104.059 87.2539 105.238 87.2695 106.809V115H83.8828V106.891C83.8828 106.172 83.7266 105.652 83.4141 105.332C83.1016 105.004 82.582 104.84 81.8555 104.84C80.9023 104.84 80.1875 105.246 79.7109 106.059V115H76.3242V102.32H79.5117ZM95.6836 115.234C93.8242 115.234 92.3086 114.664 91.1367 113.523C89.9727 112.383 89.3906 110.863 89.3906 108.965V108.637C89.3906 107.363 89.6367 106.227 90.1289 105.227C90.6211 104.219 91.3164 103.445 92.2148 102.906C93.1211 102.359 94.1523 102.086 95.3086 102.086C97.043 102.086 98.4062 102.633 99.3984 103.727C100.398 104.82 100.898 106.371 100.898 108.379V109.762H92.8242C92.9336 110.59 93.2617 111.254 93.8086 111.754C94.3633 112.254 95.0625 112.504 95.9062 112.504C97.2109 112.504 98.2305 112.031 98.9648 111.086L100.629 112.949C100.121 113.668 99.4336 114.23 98.5664 114.637C97.6992 115.035 96.7383 115.234 95.6836 115.234ZM95.2969 104.828C94.625 104.828 94.0781 105.055 93.6562 105.508C93.2422 105.961 92.9766 106.609 92.8594 107.453H97.5703V107.184C97.5547 106.434 97.3516 105.855 96.9609 105.449C96.5703 105.035 96.0156 104.828 95.2969 104.828ZM106.406 115H103.008V97H106.406V115Z" fill="black"/>
</svg>
